<svg width="16" height="16" viewBox="0 0 16 16" fill="none" xmlns="http://www.w3.org/2000/svg">
<circle cx="8" cy="8" r="8" fill="#627EEA"/>
<g clip-path="url(#clip0)">
<path d="M8.01741 2.19678V2.20256C8.02319 2.23146 8.02319 2.26614 8.02319 2.30082V6.46818C8.01741 6.4913 8.00007 6.49708 7.98273 6.50864C7.86135 6.56644 7.74575 6.61846 7.62437 6.67048C7.45675 6.74562 7.28336 6.82654 7.11574 6.90168L6.50884 7.17911C6.34122 7.25425 6.1736 7.32939 6.01176 7.40453C5.81524 7.49701 5.61295 7.58371 5.41643 7.67619C5.24881 7.75133 5.08119 7.83225 4.90779 7.90739C4.76907 7.97097 4.63035 8.02877 4.49741 8.09235C4.48585 8.09813 4.47429 8.10391 4.46273 8.10391C4.45695 8.10391 4.45695 8.10391 4.45117 8.09813L4.60723 7.83803C4.90779 7.34095 5.20257 6.84966 5.50313 6.35258C5.82102 5.82082 6.1447 5.28907 6.4626 4.75731C6.75738 4.26601 7.05794 3.77471 7.35272 3.28342C7.56657 2.92506 7.78621 2.5667 8.00007 2.20834C8.00585 2.19678 8.01163 2.191 8.01163 2.17944H8.01741C8.01163 2.18522 8.01741 2.191 8.01741 2.19678Z" fill="white"/>
<path d="M11.5663 8.09813L11.5721 8.10391L10.7224 8.60676L8.0521 10.1847C8.04054 10.1905 8.02898 10.1963 8.0232 10.202C8.00586 10.202 8.00586 10.1847 8.00586 10.1789V10.1269V6.55488C8.00586 6.53754 8.00586 6.51442 8.01164 6.49708C8.01742 6.47396 8.03476 6.47974 8.0521 6.48552C8.12724 6.5202 8.20816 6.55488 8.2833 6.58956C8.50872 6.6936 8.73414 6.79763 8.95955 6.89589C9.15607 6.98259 9.34681 7.07507 9.54333 7.16177C9.73985 7.24847 9.93637 7.34095 10.1329 7.42765C10.3005 7.50279 10.4739 7.58371 10.6415 7.65885C10.8091 7.73399 10.9825 7.81491 11.1502 7.89005C11.2831 7.94785 11.416 8.01143 11.549 8.06923C11.549 8.08657 11.5548 8.09235 11.5663 8.09813Z" fill="#8197EE"/>
<path d="M8.01741 13.7911C8.01741 13.7968 8.01163 13.8026 8.01163 13.8084H8.00585C8.00585 13.7968 7.99429 13.7911 7.98851 13.7795C7.63015 13.2766 7.2718 12.768 6.91344 12.2651C6.5493 11.7507 6.17938 11.2305 5.81524 10.7161C5.46267 10.219 5.10431 9.71618 4.75173 9.2191C4.65925 9.08616 4.56677 8.959 4.47429 8.82606C4.46851 8.8145 4.46273 8.80872 4.45117 8.79138C4.46851 8.79138 4.48007 8.80294 4.48585 8.80872C4.98871 9.1035 5.48579 9.39828 5.98864 9.69306C6.56664 10.0341 7.13886 10.3751 7.71685 10.7161L8.01163 10.8895C8.02319 10.9011 8.02319 10.9126 8.02319 10.9242V13.7101C8.02319 13.739 8.02319 13.7679 8.01741 13.7911Z" fill="white"/>
<path d="M4.44531 8.10993V8.10415C4.63027 8.02323 4.80945 7.93653 4.99441 7.85561C5.23139 7.74579 5.46837 7.64175 5.70535 7.53193C5.88453 7.45102 6.06948 7.36432 6.24866 7.2834C6.51454 7.16202 6.77464 7.04642 7.04052 6.92504C7.2197 6.84412 7.39888 6.7632 7.58384 6.6765C7.711 6.6187 7.84394 6.5609 7.97109 6.5031C7.98265 6.49732 7.99999 6.49154 8.00577 6.47998C8.01155 6.47998 8.01155 6.48576 8.00577 6.49154V10.1618C8.00577 10.1792 7.99999 10.1965 8.01155 10.2081C7.99999 10.2254 7.98843 10.2081 7.98265 10.2023C7.93063 10.1734 7.87861 10.1445 7.8266 10.1098C6.71106 9.45088 5.58975 8.78619 4.47421 8.12727C4.46843 8.12149 4.45687 8.11571 4.44531 8.10993Z" fill="#C0CBF6"/>
<path d="M11.5548 8.79138H11.5606C11.5606 8.80294 11.5491 8.8145 11.5433 8.82606C10.4798 10.3231 9.41625 11.8259 8.35274 13.3229C8.24292 13.4789 8.12732 13.635 8.0175 13.7911C8.01172 13.7853 8.01172 13.7795 8.01172 13.7737V13.739V10.9357V10.8837C8.25448 10.7392 8.49146 10.6005 8.73421 10.456C9.67057 9.90114 10.6069 9.35204 11.5375 8.79716C11.5433 8.80294 11.5491 8.79716 11.5548 8.79138Z" fill="#C0CBF6"/>
<path d="M8.01156 6.49113V6.47957V6.44489V2.24863C8.01156 2.23129 8.00578 2.21973 8.01734 2.20239C9.19067 4.15024 10.364 6.09231 11.5316 8.04016C11.5431 8.0575 11.5605 8.08062 11.5662 8.10374C11.4853 8.07484 11.4102 8.03438 11.335 7.9997C11.2426 7.95924 11.1443 7.913 11.0518 7.87254C10.994 7.84364 10.9304 7.82052 10.8726 7.79162C10.7744 7.74538 10.6761 7.70492 10.5779 7.65868C10.5201 7.63556 10.4623 7.60666 10.4045 7.57776L10.023 7.40436C9.95941 7.37546 9.89583 7.34656 9.82647 7.31766L9.54903 7.19628C9.49123 7.17316 9.43343 7.14427 9.37563 7.11537L8.99415 6.94197C8.93057 6.91307 8.867 6.88417 8.79764 6.85527L8.5202 6.73389C8.45662 6.70499 8.39882 6.67609 8.33524 6.64719C8.22542 6.59517 8.1156 6.54315 8 6.49691C8.01734 6.49113 8.01156 6.49113 8.01156 6.49113Z" fill="#C0CBF6"/>
</g>
<defs>
<clipPath id="clip0">
<rect width="11.7333" height="11.7333" fill="white" transform="translate(2.13281 2.1333)"/>
</clipPath>
</defs>
</svg>
