<svg width="16" height="16" viewBox="0 0 16 16" fill="none" xmlns="http://www.w3.org/2000/svg">
<circle cx="8" cy="8" r="8" fill="#8247E5"/>
<g clip-path="url(#clip0)">
<path d="M10.6542 6.19438C10.4654 6.08112 10.22 6.08112 10.0124 6.19438L8.54001 7.06271L7.53954 7.62902L6.06715 8.49735C5.87838 8.61061 5.63298 8.61061 5.42534 8.49735L4.25497 7.81778C4.0662 7.70452 3.93407 7.49688 3.93407 7.27036V5.9301C3.93407 5.70358 4.04733 5.49593 4.25497 5.38267L5.40646 4.72198C5.59523 4.60872 5.84063 4.60872 6.04827 4.72198L7.19976 5.38267C7.38853 5.49593 7.52066 5.70358 7.52066 5.9301V6.79843L8.52114 6.21325V5.34492C8.52114 5.1184 8.40787 4.91075 8.20023 4.79749L6.06715 3.55162C5.87838 3.43836 5.63298 3.43836 5.42534 3.55162L3.2545 4.79749C3.04685 4.91075 2.93359 5.1184 2.93359 5.34492V7.85554C2.93359 8.08206 3.04685 8.2897 3.2545 8.40296L5.42534 9.64884C5.6141 9.7621 5.8595 9.7621 6.06715 9.64884L7.53954 8.79938L8.54001 8.2142L10.0124 7.36474C10.2012 7.25148 10.4466 7.25148 10.6542 7.36474L11.8057 8.02543C11.9945 8.13869 12.1266 8.34633 12.1266 8.57286V9.91311C12.1266 10.1396 12.0133 10.3473 11.8057 10.4605L10.6542 11.1401C10.4654 11.2534 10.22 11.2534 10.0124 11.1401L8.86092 10.4794C8.67215 10.3662 8.54001 10.1585 8.54001 9.93199V9.06365L7.53954 9.64884V10.5172C7.53954 10.7437 7.6528 10.9513 7.86045 11.0646L10.0313 12.3105C10.22 12.4237 10.4654 12.4237 10.6731 12.3105L12.8439 11.0646C13.0327 10.9513 13.1648 10.7437 13.1648 10.5172V8.00655C13.1648 7.78003 13.0516 7.57238 12.8439 7.45912L10.6542 6.19438Z" fill="white"/>
</g>
<defs>
<clipPath id="clip0">
<rect width="11.7333" height="11.7333" fill="white" transform="translate(2.13281 2.1333)"/>
</clipPath>
</defs>
</svg>
